<svg width="1116" height="437" viewBox="0 0 1116 437" fill="none" xmlns="http://www.w3.org/2000/svg">
<g clip-path="url(#clip0_259_355)">
<rect width="1116" height="437" rx="20" fill="white"/>
<rect width="1119" height="114" fill="#CCCDD2"/>
<g filter="url(#filter0_d_259_355)">
<rect y="58" width="1116" height="42" fill="#D9D9D9"/>
</g>
<path d="M156.349 56H0V114H1119V56H411.92L393.88 21H175.893L156.349 56Z" fill="#D2D2D2"/>
<circle cx="68" cy="31" r="10" fill="#EF8903"/>
<circle cx="33" cy="31" r="10" fill="#AA0202"/>
<circle cx="103" cy="31" r="10" fill="#023048"/>
<rect x="163" y="73" width="893" height="27" rx="6" fill="white"/>
<line x1="1069" y1="76.5" x2="1104" y2="76.5" stroke="#7A7C79" strokeWidth="3"/>
<line x1="1069" y1="85.5" x2="1104" y2="85.5" stroke="#7A7C79" strokeWidth="3"/>
<line x1="1069" y1="94.5" x2="1104" y2="94.5" stroke="#7A7C79" strokeWidth="3"/>
<path d="M429.5 27V43M421 35H438.5" stroke="#7A7A7A" strokeWidth="4"/>
<g filter="url(#filter1_d_259_355)">
<path d="M176.512 92.9253L176.437 92.4309L176.512 92.9253ZM169.063 87.4418L168.568 87.5143L169.063 87.4418ZM182 84.3084L180.709 78.6811L176.481 82.6129L182 84.3084ZM181.609 87.4418C181.109 87.4418 181.109 87.4416 181.109 87.4414C181.109 87.4413 181.109 87.4411 181.109 87.441C181.109 87.4408 181.109 87.4406 181.109 87.4406C181.109 87.4404 181.109 87.4405 181.109 87.441C181.109 87.4418 181.109 87.4437 181.109 87.4467C181.109 87.4526 181.109 87.4628 181.108 87.477C181.107 87.5054 181.105 87.5496 181.101 87.6077C181.092 87.724 181.074 87.8947 181.037 88.1037C180.964 88.5229 180.817 89.0872 180.525 89.6706C179.951 90.8174 178.806 92.0722 176.437 92.4309L176.586 93.4196C179.315 93.0066 180.718 91.5197 181.419 90.1178C181.765 89.4268 181.936 88.7648 182.022 88.2765C182.065 88.0317 182.087 87.8283 182.098 87.6839C182.103 87.6116 182.106 87.5539 182.108 87.5129C182.109 87.4923 182.109 87.476 182.109 87.4641C182.109 87.4581 182.109 87.4532 182.109 87.4495C182.109 87.4477 182.109 87.4461 182.109 87.4448C182.109 87.4442 182.109 87.4436 182.109 87.4431C182.109 87.4429 182.109 87.4425 182.109 87.4424C182.109 87.4421 182.109 87.4418 181.609 87.4418ZM176.437 92.4309C173.135 92.9308 170.04 90.6634 169.558 87.3693L168.568 87.5143C169.132 91.364 172.744 94.0013 176.586 93.4196L176.437 92.4309ZM169.558 87.3693C169.04 83.8364 172.105 80.5028 175.728 80.5L175.727 79.5C171.544 79.5032 167.955 83.3301 168.568 87.5143L169.558 87.3693ZM175.728 80.5C176.838 80.4991 177.822 80.8844 178.663 81.4323L179.209 80.5946C178.25 79.9695 177.078 79.499 175.727 79.5L175.728 80.5Z" fill="#7A7A7A"/>
</g>
<path d="M70 86.5H92.5M92.5 86.5L80 76M92.5 86.5L80 97" stroke="white" strokeWidth="5"/>
<path d="M52.5 86.5H30M30 86.5L42.5 76M30 86.5L42.5 97" stroke="#888888" strokeWidth="5"/>
<rect x="756.277" y="151.621" width="255.853" height="80.5666" rx="40.2833" fill="#9A1924"/>
<path d="M30.8853 215L50.2771 167.867H56.0004L75.4595 215H69.6016L64.0803 201.533H42.2645L36.7433 215H30.8853ZM44.4192 196.416H61.9257L53.1724 175.072L44.4192 196.416ZM81.9082 215V179.314H87.4968V215H81.9082ZM80.5616 169.146C80.5616 166.79 82.3795 165.039 84.7362 165.039C87.0928 165.039 88.8435 166.79 88.8435 169.146C88.8435 171.503 87.0928 173.321 84.7362 173.321C82.3795 173.321 80.5616 171.503 80.5616 169.146ZM98.3879 227.322L93.8766 225.908L100.947 203.351L105.727 204.833L98.3879 227.322ZM129.87 215V167.867H135.526V215H129.87ZM160.231 215.741C150.67 215.741 144.004 208.065 144.004 196.955C144.004 186.047 150.602 178.506 160.164 178.506C165.55 178.506 170.061 180.862 172.62 184.633V164.5H178.209V215H173.765L173.159 208.132C170.802 212.778 166.089 215.741 160.231 215.741ZM149.794 196.955C149.794 205.169 154.44 210.893 161.106 210.893C167.907 210.893 172.62 205.102 172.62 196.82C172.62 188.808 168.041 183.286 161.443 183.286C154.575 183.286 149.794 188.875 149.794 196.955ZM189.326 227.322L184.815 225.908L191.885 203.351L196.666 204.833L189.326 227.322ZM220.809 215V167.867H243.096C252.926 167.867 258.178 174.129 258.178 181.67C258.178 191.232 251.445 196.349 243.096 196.349H226.465V215H220.809ZM226.465 191.164H243.365C249.223 191.164 252.388 186.922 252.388 181.67C252.388 176.082 248.348 173.052 243.365 173.052H226.465V191.164ZM278.761 215.741C270.277 215.741 264.015 211.297 263.544 203.755H268.998C269.402 208.401 273.644 210.96 279.03 210.96C284.08 210.96 286.504 209.007 286.504 205.439C286.504 202.072 283.878 201.331 280.175 200.052L274.99 198.301C269.738 196.551 264.487 194.935 264.487 188.471C264.487 182.411 269.2 178.506 277.01 178.506C284.888 178.506 290.342 182.748 291.218 190.693H285.764C285.158 185.71 281.656 183.286 276.808 183.286C272.432 183.286 269.873 185.239 269.873 188.336C269.873 192.04 273.778 192.78 276.741 193.79L281.589 195.406C288.12 197.561 292.026 199.783 292.026 205.708C292.026 211.97 287.447 215.741 278.761 215.741ZM325.536 215.539C317.456 215.539 312.271 211.364 312.271 204.833C312.271 196.618 320.216 195.07 327.354 194.329C332.808 193.79 337.521 193.858 337.588 190.962C337.521 186.451 333.818 183.286 328.431 183.286C323.246 183.286 319.206 186.182 318.6 190.424H313.079C313.752 183.421 320.082 178.506 328.566 178.506C337.386 178.506 343.042 183.758 343.042 191.299V208.671C343.042 209.815 343.648 210.421 344.86 210.421H346.88V215H343.716C339.878 215 337.858 213.249 337.858 209.95V208.873C335.77 212.98 331.73 215.539 325.536 215.539ZM317.86 204.698C317.86 208.401 321.226 210.758 326.344 210.758C333.01 210.758 337.588 206.516 337.588 200.591V195.945C336.04 198.032 332.067 198.436 327.69 198.907C322.775 199.446 317.86 200.119 317.86 204.698ZM353.146 215V179.314H357.59L358.128 184.768C360.552 180.997 365.198 178.506 370.518 178.506C378.194 178.506 383.311 183.488 383.311 191.366V215H377.722V191.568C377.722 186.586 374.49 183.421 369.104 183.421C362.707 183.421 358.802 187.865 358.734 193.319V215H353.146ZM406.482 215.741C396.92 215.741 390.254 208.065 390.254 196.955C390.254 186.047 396.853 178.506 406.414 178.506C411.801 178.506 416.312 180.862 418.871 184.633V164.5H424.459V215H420.016L419.41 208.132C417.053 212.778 412.34 215.741 406.482 215.741ZM396.045 196.955C396.045 205.169 400.691 210.893 407.357 210.893C414.158 210.893 418.871 205.102 418.871 196.82C418.871 188.808 414.292 183.286 407.694 183.286C400.826 183.286 396.045 188.875 396.045 196.955ZM450.095 215V167.867H482.212V173.052H455.751V188.336H480.192V193.521H455.751V215H450.095ZM489.586 215V179.314H495.175V215H489.586ZM488.24 169.146C488.24 166.79 490.058 165.039 492.414 165.039C494.771 165.039 496.522 166.79 496.522 169.146C496.522 171.503 494.771 173.321 492.414 173.321C490.058 173.321 488.24 171.503 488.24 169.146ZM519.869 229.275C510.241 229.275 503.709 224.629 503.709 217.087H509.298C509.298 221.329 513.607 224.561 519.869 224.561C527.209 224.561 531.047 220.185 531.047 214.057V208.267C528.555 211.97 524.246 214.394 518.792 214.394C509.298 214.394 502.497 207.122 502.497 196.618C502.497 185.912 509.365 178.506 518.792 178.506C524.515 178.506 529.161 181.199 531.585 185.508L532.191 179.314H536.568V214.057C536.568 223.08 530.508 229.275 519.869 229.275ZM508.288 196.551C508.288 204.227 512.934 209.546 519.6 209.546C526.333 209.546 531.047 204.159 531.047 196.416C531.047 188.74 526.333 183.354 519.6 183.354C512.934 183.354 508.288 188.74 508.288 196.551ZM545.741 215V179.314H550.185L550.723 184.835C553.147 180.997 557.793 178.506 562.911 178.506C568.297 178.506 572.337 181.266 574.155 185.576C576.445 181.401 581.36 178.506 586.814 178.506C594.355 178.506 599.203 183.825 599.203 191.097V215H593.614V191.299C593.614 186.518 590.652 183.421 585.871 183.421C579.205 183.421 575.3 187.865 575.233 193.319V215H569.711V191.299C569.711 186.518 566.749 183.421 561.968 183.421C555.302 183.421 551.397 187.865 551.329 193.319V215H545.741ZM619.459 215.539C611.379 215.539 606.194 211.364 606.194 204.833C606.194 196.618 614.139 195.07 621.277 194.329C626.73 193.79 631.444 193.858 631.511 190.962C631.444 186.451 627.74 183.286 622.354 183.286C617.169 183.286 613.129 186.182 612.523 190.424H607.002C607.675 183.421 614.005 178.506 622.489 178.506C631.309 178.506 636.965 183.758 636.965 191.299V208.671C636.965 209.815 637.571 210.421 638.783 210.421H640.803V215H637.638C633.8 215 631.78 213.249 631.78 209.95V208.873C629.693 212.98 625.653 215.539 619.459 215.539ZM611.783 204.698C611.783 208.401 615.149 210.758 620.267 210.758C626.932 210.758 631.511 206.516 631.511 200.591V195.945C629.962 198.032 625.99 198.436 621.613 198.907C616.698 199.446 611.783 200.119 611.783 204.698ZM666.165 215V184.027H659.566V179.314H666.165V174.331C666.165 167.934 669.733 164.5 676.332 164.5H684.277V169.214H676.332C673.369 169.214 671.753 171.032 671.753 174.331V179.314H683.335V184.027H671.753V215H666.165ZM703.985 215.741C692.539 215.741 686.479 207.593 686.479 196.82C686.479 184.902 694.289 178.506 703.985 178.506C715.364 178.506 721.492 186.72 721.492 196.82C721.492 209.142 714.018 215.741 703.985 215.741ZM692.202 196.82C692.202 205.977 697.521 210.893 703.985 210.893C711.594 210.893 715.768 204.563 715.768 196.82C715.768 188.808 711.122 183.354 703.985 183.354C696.848 183.354 692.202 188.808 692.202 196.82ZM728.802 215V179.314H733.245L733.919 186.114C736.208 181.536 740.383 179.112 746.308 179.112H747.52V184.633H746.308C738.767 184.633 734.39 188.942 734.39 196.282V215H728.802ZM1013.31 227.322L1008.8 225.908L1015.87 203.351L1020.65 204.833L1013.31 227.322ZM1011.83 182.68C1011.83 180.324 1013.65 178.506 1016.07 178.506C1018.49 178.506 1020.31 180.324 1020.31 182.68C1020.31 185.104 1018.49 186.922 1016.07 186.922C1013.65 186.922 1011.83 185.104 1011.83 182.68Z" fill="black"/>
<path d="M783.453 215.741C773.891 215.741 767.225 208.065 767.225 196.955C767.225 186.047 773.824 178.506 783.385 178.506C788.772 178.506 793.283 180.862 795.842 184.633V164.5H801.43V215H796.986L796.38 208.132C794.024 212.778 789.31 215.741 783.453 215.741ZM773.016 196.955C773.016 205.169 777.662 210.893 784.328 210.893C791.128 210.893 795.842 205.102 795.842 196.82C795.842 188.808 791.263 183.286 784.665 183.286C777.797 183.286 773.016 188.875 773.016 196.955ZM826.553 215.741C815.982 215.741 808.979 207.997 808.979 197.292C808.979 185.104 816.857 178.506 825.88 178.506C835.711 178.506 842.04 185.104 842.242 196.551V198.1H814.568C814.905 205.708 819.349 210.893 826.553 210.893C831.536 210.893 835.172 208.401 836.653 203.755H842.107C840.491 211.095 834.701 215.741 826.553 215.741ZM814.905 193.454H836.384C835.374 187.192 831.603 183.354 825.88 183.354C820.224 183.354 816.049 187.057 814.905 193.454ZM862.925 215.741C854.441 215.741 848.179 211.297 847.707 203.755H853.161C853.565 208.401 857.807 210.96 863.194 210.96C868.244 210.96 870.668 209.007 870.668 205.439C870.668 202.072 868.042 201.331 864.339 200.052L859.154 198.301C853.902 196.551 848.65 194.935 848.65 188.471C848.65 182.411 853.363 178.506 861.174 178.506C869.052 178.506 874.506 182.748 875.381 190.693H869.927C869.321 185.71 865.82 183.286 860.972 183.286C856.595 183.286 854.037 185.239 854.037 188.336C854.037 192.04 857.942 192.78 860.905 193.79L865.753 195.406C872.284 197.561 876.189 199.783 876.189 205.708C876.189 211.97 871.61 215.741 862.925 215.741ZM883.062 215V179.314H888.65V215H883.062ZM881.715 169.146C881.715 166.79 883.533 165.039 885.89 165.039C888.246 165.039 889.997 166.79 889.997 169.146C889.997 171.503 888.246 173.321 885.89 173.321C883.533 173.321 881.715 171.503 881.715 169.146ZM913.345 229.275C903.716 229.275 897.185 224.629 897.185 217.087H902.773C902.773 221.329 907.083 224.561 913.345 224.561C920.684 224.561 924.522 220.185 924.522 214.057V208.267C922.03 211.97 917.721 214.394 912.267 214.394C902.773 214.394 895.973 207.122 895.973 196.618C895.973 185.912 902.841 178.506 912.267 178.506C917.991 178.506 922.636 181.199 925.06 185.508L925.666 179.314H930.043V214.057C930.043 223.08 923.983 229.275 913.345 229.275ZM901.763 196.551C901.763 204.227 906.409 209.546 913.075 209.546C919.809 209.546 924.522 204.159 924.522 196.416C924.522 188.74 919.809 183.354 913.075 183.354C906.409 183.354 901.763 188.74 901.763 196.551ZM939.216 215V179.314H943.66L944.199 184.768C946.623 180.997 951.269 178.506 956.588 178.506C964.264 178.506 969.381 183.488 969.381 191.366V215H963.793V191.568C963.793 186.586 960.561 183.421 955.174 183.421C948.777 183.421 944.872 187.865 944.805 193.319V215H939.216ZM991.475 215.741C982.991 215.741 976.729 211.297 976.258 203.755H981.711C982.115 208.401 986.357 210.96 991.744 210.96C996.794 210.96 999.218 209.007 999.218 205.439C999.218 202.072 996.592 201.331 992.889 200.052L987.704 198.301C982.452 196.551 977.2 194.935 977.2 188.471C977.2 182.411 981.913 178.506 989.724 178.506C997.602 178.506 1003.06 182.748 1003.93 190.693H998.477C997.871 185.71 994.37 183.286 989.522 183.286C985.145 183.286 982.587 185.239 982.587 188.336C982.587 192.04 986.492 192.78 989.455 193.79L994.303 195.406C1000.83 197.561 1004.74 199.783 1004.74 205.708C1004.74 211.97 1000.16 215.741 991.475 215.741Z" fill="white"/>
<rect x="771.52" y="235.621" width="299.403" height="80.5666" rx="40.2833" fill="#EF8903"/>
<path d="M34.7233 299V251.867H41.1872L67.8509 290.92V251.867H73.5069V299H67.043L40.3792 259.947V299H34.7233ZM99.5036 299.741C88.0571 299.741 81.9971 291.593 81.9971 280.82C81.9971 268.902 89.8077 262.506 99.5036 262.506C110.883 262.506 117.01 270.72 117.01 280.82C117.01 293.142 109.536 299.741 99.5036 299.741ZM87.7204 280.82C87.7204 289.977 93.0397 294.893 99.5036 294.893C107.112 294.893 111.287 288.563 111.287 280.82C111.287 272.808 106.641 267.354 99.5036 267.354C92.3664 267.354 87.7204 272.808 87.7204 280.82ZM138.011 299C131.075 299 127.372 295.431 127.372 288.833V268.027H120.773V263.314H127.372V251.126H132.961V263.314H142.589V268.027H132.961V288.833C132.961 292.401 134.711 294.287 138.011 294.287H141.983V299H138.011ZM164.076 299.741C153.505 299.741 146.502 291.997 146.502 281.292C146.502 269.104 154.38 262.506 163.403 262.506C173.233 262.506 179.563 269.104 179.765 280.551V282.1H152.091C152.428 289.708 156.872 294.893 164.076 294.893C169.059 294.893 172.695 292.401 174.176 287.755H179.63C178.014 295.095 172.223 299.741 164.076 299.741ZM152.428 277.454H173.907C172.897 271.192 169.126 267.354 163.403 267.354C157.747 267.354 153.572 271.057 152.428 277.454ZM205.43 299.741C199.572 299.741 194.791 296.845 192.367 292.199L191.761 299H187.318V248.5H192.906V268.902C195.532 264.997 200.043 262.506 205.43 262.506C214.857 262.506 221.455 270.047 221.455 280.955C221.455 292.065 214.857 299.741 205.43 299.741ZM192.906 280.686C192.906 289.035 197.754 294.893 204.555 294.893C211.153 294.893 215.665 289.169 215.665 280.955C215.665 272.942 211.153 267.354 204.487 267.354C197.754 267.354 192.906 272.808 192.906 280.686ZM244.492 299.741C233.046 299.741 226.986 291.593 226.986 280.82C226.986 268.902 234.797 262.506 244.492 262.506C255.872 262.506 261.999 270.72 261.999 280.82C261.999 293.142 254.525 299.741 244.492 299.741ZM232.709 280.82C232.709 289.977 238.028 294.893 244.492 294.893C252.101 294.893 256.276 288.563 256.276 280.82C256.276 272.808 251.63 267.354 244.492 267.354C237.355 267.354 232.709 272.808 232.709 280.82ZM284.997 299.741C273.551 299.741 267.491 291.593 267.491 280.82C267.491 268.902 275.301 262.506 284.997 262.506C296.376 262.506 302.504 270.72 302.504 280.82C302.504 293.142 295.03 299.741 284.997 299.741ZM273.214 280.82C273.214 289.977 278.533 294.893 284.997 294.893C292.606 294.893 296.78 288.563 296.78 280.82C296.78 272.808 292.134 267.354 284.997 267.354C277.86 267.354 273.214 272.808 273.214 280.82ZM310.016 299V248.5H315.604V280.888L332.976 263.314H339.709L326.849 276.309L341.662 299H335.131L323.011 280.214L315.604 287.688V299H310.016ZM365.469 299V268.027H358.871V263.314H365.469V258.331C365.469 251.934 369.038 248.5 375.636 248.5H383.582V253.214H375.636C372.674 253.214 371.058 255.032 371.058 258.331V263.314H382.639V268.027H371.058V299H365.469ZM403.29 299.741C391.843 299.741 385.783 291.593 385.783 280.82C385.783 268.902 393.594 262.506 403.29 262.506C414.669 262.506 420.796 270.72 420.796 280.82C420.796 293.142 413.322 299.741 403.29 299.741ZM391.506 280.82C391.506 289.977 396.826 294.893 403.29 294.893C410.898 294.893 415.073 288.563 415.073 280.82C415.073 272.808 410.427 267.354 403.29 267.354C396.152 267.354 391.506 272.808 391.506 280.82ZM428.106 299V263.314H432.55L433.223 270.114C435.513 265.536 439.687 263.112 445.612 263.112H446.824V268.633H445.612C438.071 268.633 433.695 272.942 433.695 280.282V299H428.106ZM468.348 299V263.314H473.936V299H468.348ZM467.001 253.146C467.001 250.79 468.819 249.039 471.176 249.039C473.532 249.039 475.283 250.79 475.283 253.146C475.283 255.503 473.532 257.321 471.176 257.321C468.819 257.321 467.001 255.503 467.001 253.146ZM497.486 299.741C487.925 299.741 481.259 292.065 481.259 280.955C481.259 270.047 487.857 262.506 497.419 262.506C502.805 262.506 507.317 264.862 509.875 268.633V248.5H515.464V299H511.02L510.414 292.132C508.057 296.778 503.344 299.741 497.486 299.741ZM487.049 280.955C487.049 289.169 491.695 294.893 498.361 294.893C505.162 294.893 509.875 289.102 509.875 280.82C509.875 272.808 505.297 267.286 498.698 267.286C491.83 267.286 487.049 272.875 487.049 280.955ZM540.587 299.741C530.016 299.741 523.013 291.997 523.013 281.292C523.013 269.104 530.891 262.506 539.913 262.506C549.744 262.506 556.073 269.104 556.275 280.551V282.1H528.602C528.938 289.708 533.382 294.893 540.587 294.893C545.569 294.893 549.205 292.401 550.687 287.755H556.141C554.525 295.095 548.734 299.741 540.587 299.741ZM528.938 277.454H550.417C549.407 271.192 545.637 267.354 539.913 267.354C534.257 267.354 530.083 271.057 528.938 277.454ZM575.14 299.539C567.06 299.539 561.875 295.364 561.875 288.833C561.875 280.618 569.821 279.07 576.958 278.329C582.412 277.79 587.125 277.858 587.193 274.962C587.125 270.451 583.422 267.286 578.035 267.286C572.851 267.286 568.811 270.182 568.205 274.424H562.683C563.357 267.421 569.686 262.506 578.17 262.506C586.991 262.506 592.646 267.758 592.646 275.299V292.671C592.646 293.815 593.252 294.421 594.464 294.421H596.484V299H593.32C589.482 299 587.462 297.249 587.462 293.95V292.873C585.375 296.98 581.335 299.539 575.14 299.539ZM567.464 288.698C567.464 292.401 570.831 294.758 575.948 294.758C582.614 294.758 587.193 290.516 587.193 284.591V279.945C585.644 282.032 581.671 282.436 577.295 282.907C572.379 283.446 567.464 284.119 567.464 288.698ZM616.082 299.741C607.598 299.741 601.336 295.297 600.865 287.755H606.319C606.723 292.401 610.965 294.96 616.351 294.96C621.401 294.96 623.825 293.007 623.825 289.439C623.825 286.072 621.199 285.331 617.496 284.052L612.311 282.301C607.059 280.551 601.807 278.935 601.807 272.471C601.807 266.411 606.521 262.506 614.331 262.506C622.209 262.506 627.663 266.748 628.538 274.693H623.085C622.479 269.71 618.977 267.286 614.129 267.286C609.753 267.286 607.194 269.239 607.194 272.336C607.194 276.04 611.099 276.78 614.062 277.79L618.91 279.406C625.441 281.561 629.346 283.783 629.346 289.708C629.346 295.97 624.768 299.741 616.082 299.741ZM662.857 299.539C654.777 299.539 649.592 295.364 649.592 288.833C649.592 280.618 657.537 279.07 664.675 278.329C670.128 277.79 674.842 277.858 674.909 274.962C674.842 270.451 671.138 267.286 665.752 267.286C660.567 267.286 656.527 270.182 655.921 274.424H650.4C651.073 267.421 657.403 262.506 665.887 262.506C674.707 262.506 680.363 267.758 680.363 275.299V292.671C680.363 293.815 680.969 294.421 682.181 294.421H684.201V299H681.036C677.198 299 675.178 297.249 675.178 293.95V292.873C673.091 296.98 669.051 299.539 662.857 299.539ZM655.181 288.698C655.181 292.401 658.547 294.758 663.665 294.758C670.33 294.758 674.909 290.516 674.909 284.591V279.945C673.36 282.032 669.388 282.436 665.011 282.907C660.096 283.446 655.181 284.119 655.181 288.698ZM690.467 299V263.314H694.911L695.449 268.768C697.873 264.997 702.519 262.506 707.838 262.506C715.514 262.506 720.632 267.488 720.632 275.366V299H715.043V275.568C715.043 270.586 711.811 267.421 706.424 267.421C700.028 267.421 696.123 271.865 696.055 277.319V299H690.467ZM743.803 299.741C734.241 299.741 727.575 292.065 727.575 280.955C727.575 270.047 734.174 262.506 743.735 262.506C749.122 262.506 753.633 264.862 756.192 268.633V248.5H761.78V299H757.336L756.73 292.132C754.374 296.778 749.66 299.741 743.803 299.741ZM733.366 280.955C733.366 289.169 738.012 294.893 744.678 294.893C751.478 294.893 756.192 289.102 756.192 280.82C756.192 272.808 751.613 267.286 745.014 267.286C738.147 267.286 733.366 272.875 733.366 280.955ZM799.603 299.741C791.119 299.741 784.857 295.297 784.386 287.755H789.84C790.244 292.401 794.486 294.96 799.872 294.96C804.922 294.96 807.346 293.007 807.346 289.439C807.346 286.072 804.72 285.331 801.017 284.052L795.832 282.301C790.58 280.551 785.328 278.935 785.328 272.471C785.328 266.411 790.042 262.506 797.852 262.506C805.73 262.506 811.184 266.748 812.059 274.693H806.605C805.999 269.71 802.498 267.286 797.65 267.286C793.274 267.286 790.715 269.239 790.715 272.336C790.715 276.04 794.62 276.78 797.583 277.79L802.431 279.406C808.962 281.561 812.867 283.783 812.867 289.708C812.867 295.97 808.289 299.741 799.603 299.741ZM819.942 299V248.5H825.531V280.888L842.903 263.314H849.636L836.775 276.309L851.588 299H845.057L832.937 280.214L825.531 287.688V299H819.942ZM870.149 299.741C859.577 299.741 852.575 291.997 852.575 281.292C852.575 269.104 860.453 262.506 869.475 262.506C879.306 262.506 885.635 269.104 885.837 280.551V282.1H858.163C858.5 289.708 862.944 294.893 870.149 294.893C875.131 294.893 878.767 292.401 880.249 287.755H885.702C884.086 295.095 878.296 299.741 870.149 299.741ZM858.5 277.454H879.979C878.969 271.192 875.199 267.354 869.475 267.354C863.819 267.354 859.645 271.057 858.5 277.454ZM906.879 299C899.943 299 896.24 295.431 896.24 288.833V268.027H889.641V263.314H896.24V251.126H901.829V263.314H911.457V268.027H901.829V288.833C901.829 292.401 903.579 294.287 906.879 294.287H910.851V299H906.879ZM933.146 299.741C921.565 299.741 915.37 291.257 915.37 280.955C915.37 268.97 923.248 262.506 932.944 262.506C941.899 262.506 948.296 267.892 949.306 277.05H943.852C942.909 271.124 938.802 267.354 932.81 267.354C925.74 267.354 921.026 272.538 921.026 280.955C921.026 290.045 926.548 294.893 933.214 294.893C938.937 294.893 942.842 291.257 943.852 285.062H949.306C948.296 294.287 942.371 299.741 933.146 299.741ZM956.843 299V248.5H962.432V267.892C964.99 264.66 969.367 262.506 974.215 262.506C981.891 262.506 987.008 267.488 987.008 275.366V299H981.419V275.568C981.419 270.586 978.188 267.421 973.138 267.421C966.404 267.421 962.499 271.865 962.432 277.319V299H956.843ZM1011.52 299.741C1000.95 299.741 993.947 291.997 993.947 281.292C993.947 269.104 1001.82 262.506 1010.85 262.506C1020.68 262.506 1027.01 269.104 1027.21 280.551V282.1H999.536C999.872 289.708 1004.32 294.893 1011.52 294.893C1016.5 294.893 1020.14 292.401 1021.62 287.755H1027.07C1025.46 295.095 1019.67 299.741 1011.52 299.741ZM999.872 277.454H1021.35C1020.34 271.192 1016.57 267.354 1010.85 267.354C1005.19 267.354 1001.02 271.057 999.872 277.454ZM1047.89 299.741C1039.41 299.741 1033.15 295.297 1032.67 287.755H1038.13C1038.53 292.401 1042.77 294.96 1048.16 294.96C1053.21 294.96 1055.64 293.007 1055.64 289.439C1055.64 286.072 1053.01 285.331 1049.31 284.052L1044.12 282.301C1038.87 280.551 1033.62 278.935 1033.62 272.471C1033.62 266.411 1038.33 262.506 1046.14 262.506C1054.02 262.506 1059.47 266.748 1060.35 274.693H1054.89C1054.29 269.71 1050.79 267.286 1045.94 267.286C1041.56 267.286 1039 269.239 1039 272.336C1039 276.04 1042.91 276.78 1045.87 277.79L1050.72 279.406C1057.25 281.561 1061.16 283.783 1061.16 289.708C1061.16 295.97 1056.58 299.741 1047.89 299.741ZM1069.73 311.322L1065.22 309.908L1072.29 287.351L1077.07 288.833L1069.73 311.322ZM1068.25 266.68C1068.25 264.324 1070.06 262.506 1072.49 262.506C1074.91 262.506 1076.73 264.324 1076.73 266.68C1076.73 269.104 1074.91 270.922 1072.49 270.922C1070.06 270.922 1068.25 269.104 1068.25 266.68Z" fill="black"/>
<rect x="756.277" y="319.621" width="335.331" height="80.5666" rx="40.2833" fill="#669BBB"/>
<path d="M34.7233 383V335.867H41.1872L67.8509 374.92V335.867H73.5069V383H67.043L40.3792 343.947V383H34.7233ZM99.5036 383.741C88.0571 383.741 81.9971 375.593 81.9971 364.82C81.9971 352.902 89.8077 346.506 99.5036 346.506C110.883 346.506 117.01 354.72 117.01 364.82C117.01 377.142 109.536 383.741 99.5036 383.741ZM87.7204 364.82C87.7204 373.977 93.0397 378.893 99.5036 378.893C107.112 378.893 111.287 372.563 111.287 364.82C111.287 356.808 106.641 351.354 99.5036 351.354C92.3664 351.354 87.7204 356.808 87.7204 364.82ZM138.011 383C131.075 383 127.372 379.431 127.372 372.833V352.027H120.773V347.314H127.372V335.126H132.961V347.314H142.589V352.027H132.961V372.833C132.961 376.401 134.711 378.287 138.011 378.287H141.983V383H138.011ZM149.175 383V347.314H154.764V383H149.175ZM147.828 337.146C147.828 334.79 149.646 333.039 152.003 333.039C154.36 333.039 156.11 334.79 156.11 337.146C156.11 339.503 154.36 341.321 152.003 341.321C149.646 341.321 147.828 339.503 147.828 337.146ZM179.593 383.741C168.146 383.741 162.086 375.593 162.086 364.82C162.086 352.902 169.897 346.506 179.593 346.506C190.972 346.506 197.099 354.72 197.099 364.82C197.099 377.142 189.625 383.741 179.593 383.741ZM167.809 364.82C167.809 373.977 173.129 378.893 179.593 378.893C187.201 378.893 191.376 372.563 191.376 364.82C191.376 356.808 186.73 351.354 179.593 351.354C172.455 351.354 167.809 356.808 167.809 364.82ZM204.409 383V347.314H208.853L209.392 352.768C211.816 348.997 216.462 346.506 221.781 346.506C229.457 346.506 234.574 351.488 234.574 359.366V383H228.985V359.568C228.985 354.586 225.753 351.421 220.367 351.421C213.97 351.421 210.065 355.865 209.998 361.319V383H204.409ZM245.086 395.322L240.575 393.908L247.645 371.351L252.426 372.833L245.086 395.322ZM276.569 383V335.867H283.638L300.27 376.267L316.833 335.867H323.971V383H318.315V345.698L302.963 383H297.509L282.224 345.832V383H276.569ZM334.274 383V347.314H339.863V383H334.274ZM332.928 337.146C332.928 334.79 334.746 333.039 337.102 333.039C339.459 333.039 341.209 334.79 341.209 337.146C341.209 339.503 339.459 341.321 337.102 341.321C334.746 341.321 332.928 339.503 332.928 337.146ZM349.003 383V347.314H353.447L354.12 354.114C356.41 349.536 360.584 347.112 366.51 347.112H367.722V352.633H366.51C358.968 352.633 354.592 356.942 354.592 364.282V383H349.003ZM388.166 383.741C376.72 383.741 370.66 375.593 370.66 364.82C370.66 352.902 378.47 346.506 388.166 346.506C399.545 346.506 405.673 354.72 405.673 364.82C405.673 377.142 398.199 383.741 388.166 383.741ZM376.383 364.82C376.383 373.977 381.702 378.893 388.166 378.893C395.775 378.893 399.949 372.563 399.949 364.82C399.949 356.808 395.303 351.354 388.166 351.354C381.029 351.354 376.383 356.808 376.383 364.82ZM412.892 395.322L408.381 393.908L415.451 371.351L420.231 372.833L412.892 395.322ZM457.302 383V341.052H441.008V335.867H479.252V341.052H462.958V383H457.302ZM490.974 383.539C482.894 383.539 477.71 379.364 477.71 372.833C477.71 364.618 485.655 363.07 492.792 362.329C498.246 361.79 502.959 361.858 503.027 358.962C502.959 354.451 499.256 351.286 493.869 351.286C488.685 351.286 484.645 354.182 484.039 358.424H478.518C479.191 351.421 485.52 346.506 494.004 346.506C502.825 346.506 508.481 351.758 508.481 359.299V376.671C508.481 377.815 509.087 378.421 510.299 378.421H512.319V383H509.154C505.316 383 503.296 381.249 503.296 377.95V376.873C501.209 380.98 497.169 383.539 490.974 383.539ZM483.298 372.698C483.298 376.401 486.665 378.758 491.782 378.758C498.448 378.758 503.027 374.516 503.027 368.591V363.945C501.478 366.032 497.505 366.436 493.129 366.907C488.214 367.446 483.298 368.119 483.298 372.698ZM536.899 383.741C531.041 383.741 526.26 380.845 523.836 376.199L523.23 383H518.786V332.5H524.375V352.902C527.001 348.997 531.512 346.506 536.899 346.506C546.325 346.506 552.924 354.047 552.924 364.955C552.924 376.065 546.325 383.741 536.899 383.741ZM524.375 364.686C524.375 373.035 529.223 378.893 536.023 378.893C542.622 378.893 547.133 373.169 547.133 364.955C547.133 356.942 542.622 351.354 535.956 351.354C529.223 351.354 524.375 356.808 524.375 364.686ZM560.475 383V332.5H566.063V383H560.475ZM591.152 383.741C580.581 383.741 573.578 375.997 573.578 365.292C573.578 353.104 581.456 346.506 590.479 346.506C600.309 346.506 606.638 353.104 606.84 364.551V366.1H579.167C579.503 373.708 583.947 378.893 591.152 378.893C596.135 378.893 599.771 376.401 601.252 371.755H606.706C605.09 379.095 599.299 383.741 591.152 383.741ZM579.503 361.454H600.983C599.973 355.192 596.202 351.354 590.479 351.354C584.823 351.354 580.648 355.057 579.503 361.454ZM627.523 383.741C619.039 383.741 612.777 379.297 612.306 371.755H617.76C618.164 376.401 622.406 378.96 627.793 378.96C632.843 378.96 635.266 377.007 635.266 373.439C635.266 370.072 632.641 369.331 628.937 368.052L623.753 366.301C618.501 364.551 613.249 362.935 613.249 356.471C613.249 350.411 617.962 346.506 625.773 346.506C633.65 346.506 639.104 350.748 639.98 358.693H634.526C633.92 353.71 630.419 351.286 625.571 351.286C621.194 351.286 618.635 353.239 618.635 356.336C618.635 360.04 622.541 360.78 625.503 361.79L630.351 363.406C636.882 365.561 640.788 367.783 640.788 373.708C640.788 379.97 636.209 383.741 627.523 383.741ZM666.757 383V352.027H660.158V347.314H666.757V342.331C666.757 335.934 670.325 332.5 676.924 332.5H684.869V337.214H676.924C673.961 337.214 672.345 339.032 672.345 342.331V347.314H683.926V352.027H672.345V383H666.757ZM704.577 383.741C693.13 383.741 687.071 375.593 687.071 364.82C687.071 352.902 694.881 346.506 704.577 346.506C715.956 346.506 722.084 354.72 722.084 364.82C722.084 377.142 714.61 383.741 704.577 383.741ZM692.794 364.82C692.794 373.977 698.113 378.893 704.577 378.893C712.186 378.893 716.36 372.563 716.36 364.82C716.36 356.808 711.714 351.354 704.577 351.354C697.44 351.354 692.794 356.808 692.794 364.82ZM729.393 383V347.314H733.837L734.511 354.114C736.8 349.536 740.975 347.112 746.9 347.112H748.112V352.633H746.9C739.359 352.633 734.982 356.942 734.982 364.282V383H729.393ZM782.967 383.741C774.483 383.741 768.221 379.297 767.75 371.755H773.204C773.608 376.401 777.85 378.96 783.236 378.96C788.286 378.96 790.71 377.007 790.71 373.439C790.71 370.072 788.084 369.331 784.381 368.052L779.196 366.301C773.944 364.551 768.692 362.935 768.692 356.471C768.692 350.411 773.406 346.506 781.216 346.506C789.094 346.506 794.548 350.748 795.424 358.693H789.97C789.364 353.71 785.862 351.286 781.014 351.286C776.638 351.286 774.079 353.239 774.079 356.336C774.079 360.04 777.984 360.78 780.947 361.79L785.795 363.406C792.326 365.561 796.232 367.783 796.232 373.708C796.232 379.97 791.653 383.741 782.967 383.741ZM816.795 383C809.86 383 806.156 379.431 806.156 372.833V352.027H799.558V347.314H806.156V335.126H811.745V347.314H821.373V352.027H811.745V372.833C811.745 376.401 813.495 378.287 816.795 378.287H820.767V383H816.795ZM827.959 383V347.314H832.403L833.077 354.114C835.366 349.536 839.541 347.112 845.466 347.112H846.678V352.633H845.466C837.925 352.633 833.548 356.942 833.548 364.282V383H827.959ZM866.073 383.741C857.387 383.741 852.404 378.421 852.404 371.149V347.314H857.993V370.947C857.993 376.065 861.562 378.825 866.612 378.825C873.277 378.825 876.913 374.381 876.981 368.995V347.314H882.569V383H878.125L877.654 377.613C875.297 381.653 870.988 383.741 866.073 383.741ZM907.699 383.741C896.118 383.741 889.923 375.257 889.923 364.955C889.923 352.97 897.801 346.506 907.497 346.506C916.452 346.506 922.849 351.892 923.859 361.05H918.405C917.462 355.124 913.355 351.354 907.363 351.354C900.293 351.354 895.579 356.538 895.579 364.955C895.579 374.045 901.101 378.893 907.767 378.893C913.49 378.893 917.395 375.257 918.405 369.062H923.859C922.849 378.287 916.924 383.741 907.699 383.741ZM944.885 383C937.949 383 934.246 379.431 934.246 372.833V352.027H927.648V347.314H934.246V335.126H939.835V347.314H949.463V352.027H939.835V372.833C939.835 376.401 941.585 378.287 944.885 378.287H948.857V383H944.885ZM969.044 383.741C960.359 383.741 955.376 378.421 955.376 371.149V347.314H960.965V370.947C960.965 376.065 964.533 378.825 969.583 378.825C976.249 378.825 979.885 374.381 979.952 368.995V347.314H985.541V383H981.097L980.626 377.613C978.269 381.653 973.96 383.741 969.044 383.741ZM994.713 383V347.314H999.157L999.83 354.114C1002.12 349.536 1006.29 347.112 1012.22 347.112H1013.43V352.633H1012.22C1004.68 352.633 1000.3 356.942 1000.3 364.282V383H994.713ZM1033.94 383.741C1023.37 383.741 1016.37 375.997 1016.37 365.292C1016.37 353.104 1024.25 346.506 1033.27 346.506C1043.1 346.506 1049.43 353.104 1049.63 364.551V366.1H1021.96C1022.29 373.708 1026.74 378.893 1033.94 378.893C1038.93 378.893 1042.56 376.401 1044.04 371.755H1049.5C1047.88 379.095 1042.09 383.741 1033.94 383.741ZM1022.29 361.454H1043.77C1042.76 355.192 1038.99 351.354 1033.27 351.354C1027.61 351.354 1023.44 355.057 1022.29 361.454ZM1070.31 383.741C1061.83 383.741 1055.57 379.297 1055.1 371.755H1060.55C1060.96 376.401 1065.2 378.96 1070.58 378.96C1075.63 378.96 1078.06 377.007 1078.06 373.439C1078.06 370.072 1075.43 369.331 1071.73 368.052L1066.54 366.301C1061.29 364.551 1056.04 362.935 1056.04 356.471C1056.04 350.411 1060.75 346.506 1068.56 346.506C1076.44 346.506 1081.9 350.748 1082.77 358.693H1077.32C1076.71 353.71 1073.21 351.286 1068.36 351.286C1063.99 351.286 1061.43 353.239 1061.43 356.336C1061.43 360.04 1065.33 360.78 1068.29 361.79L1073.14 363.406C1079.67 365.561 1083.58 367.783 1083.58 373.708C1083.58 379.97 1079 383.741 1070.31 383.741ZM1092.15 395.322L1087.64 393.908L1094.71 371.351L1099.49 372.833L1092.15 395.322ZM1090.67 350.68C1090.67 348.324 1092.49 346.506 1094.91 346.506C1097.33 346.506 1099.15 348.324 1099.15 350.68C1099.15 353.104 1097.33 354.922 1094.91 354.922C1092.49 354.922 1090.67 353.104 1090.67 350.68Z" fill="black"/>
<path d="M196.407 91L194.272 83.7928H195.428L197.087 89.5994L198.691 83.7928H199.671L201.275 89.5722L202.921 83.7928H204.076L201.941 91H200.704L199.181 85.5062L197.658 91H196.407ZM206.752 91L204.617 83.7928H205.773L207.432 89.5994L209.036 83.7928H210.015L211.62 89.5722L213.265 83.7928H214.421L212.286 91H211.049L209.526 85.5062L208.003 91H206.752ZM215.483 91.136C214.993 91.136 214.626 90.7688 214.626 90.2793C214.626 89.8033 214.993 89.4362 215.483 89.4362C215.972 89.4362 216.339 89.8033 216.339 90.2793C216.339 90.7688 215.972 91.136 215.483 91.136ZM217.979 91V80.8012H219.108V84.7175C219.625 84.0648 220.508 83.6297 221.488 83.6297C223.038 83.6297 224.071 84.636 224.071 86.227V91H222.943V86.2678C222.943 85.2615 222.29 84.6224 221.27 84.6224C219.91 84.6224 219.121 85.5198 219.108 86.6213V91H217.979ZM229.022 91.1496C226.887 91.1496 225.473 89.5858 225.473 87.4236C225.473 84.9623 227.064 83.6297 228.886 83.6297C230.871 83.6297 232.149 84.9623 232.19 87.274V87.5868H226.601C226.669 89.1234 227.567 90.1705 229.022 90.1705C230.028 90.1705 230.762 89.6674 231.062 88.7291H232.163C231.837 90.2113 230.667 91.1496 229.022 91.1496ZM226.669 86.6485H231.007C230.803 85.3839 230.042 84.6088 228.886 84.6088C227.744 84.6088 226.9 85.3567 226.669 86.6485ZM233.716 91V80.8012H234.844V91H233.716ZM236.77 91V80.8012H237.899V91H236.77ZM242.952 91.1496C240.64 91.1496 239.416 89.5042 239.416 87.3284C239.416 84.9215 240.994 83.6297 242.952 83.6297C245.25 83.6297 246.487 85.2887 246.487 87.3284C246.487 89.8169 244.978 91.1496 242.952 91.1496ZM240.572 87.3284C240.572 89.1778 241.646 90.1705 242.952 90.1705C244.489 90.1705 245.332 88.8922 245.332 87.3284C245.332 85.7102 244.393 84.6088 242.952 84.6088C241.51 84.6088 240.572 85.7102 240.572 87.3284ZM247.306 92.1015V91.1496H253.398V92.1015H247.306ZM254.976 91V80.8012H256.105V91H254.976ZM261.172 91.1496C259.037 91.1496 257.623 89.5858 257.623 87.4236C257.623 84.9623 259.214 83.6297 261.036 83.6297C263.021 83.6297 264.3 84.9623 264.34 87.274V87.5868H258.751C258.819 89.1234 259.717 90.1705 261.172 90.1705C262.178 90.1705 262.913 89.6674 263.212 88.7291H264.313C263.987 90.2113 262.817 91.1496 261.172 91.1496ZM258.819 86.6485H263.157C262.953 85.3839 262.192 84.6088 261.036 84.6088C259.894 84.6088 259.051 85.3567 258.819 86.6485ZM268.59 91C267.189 91 266.441 90.2793 266.441 88.9466V84.7447H265.109V83.7928H266.441V81.3315H267.57V83.7928H269.515V84.7447H267.57V88.9466C267.57 89.6674 267.924 90.0481 268.59 90.0481H269.392V91H268.59ZM271.538 85.3295L270.627 85.0439L272.055 80.4884L273.02 80.7876L271.538 85.3295ZM276.246 91.1496C274.533 91.1496 273.268 90.2521 273.173 88.7291H274.274C274.356 89.6674 275.213 90.1841 276.301 90.1841C277.32 90.1841 277.81 89.7897 277.81 89.069C277.81 88.3891 277.28 88.2395 276.532 87.9812L275.485 87.6276C274.424 87.274 273.363 86.9477 273.363 85.6422C273.363 84.4184 274.315 83.6297 275.893 83.6297C277.484 83.6297 278.585 84.4864 278.762 86.091H277.66C277.538 85.0847 276.831 84.5952 275.852 84.5952C274.968 84.5952 274.451 84.9895 274.451 85.615C274.451 86.3629 275.24 86.5125 275.838 86.7165L276.817 87.0429C278.136 87.478 278.925 87.9268 278.925 89.1234C278.925 90.3881 278 91.1496 276.246 91.1496ZM280 92.1015V91.1496H286.092V92.1015H280ZM288.223 91L286.088 83.7928H287.244L288.903 89.5994L290.507 83.7928H291.486L293.091 89.5722L294.736 83.7928H295.892L293.757 91H292.52L290.997 85.5062L289.474 91H288.223ZM300.161 91.1496C297.849 91.1496 296.625 89.5042 296.625 87.3284C296.625 84.9215 298.203 83.6297 300.161 83.6297C302.459 83.6297 303.696 85.2887 303.696 87.3284C303.696 89.8169 302.187 91.1496 300.161 91.1496ZM297.781 87.3284C297.781 89.1778 298.855 90.1705 300.161 90.1705C301.697 90.1705 302.54 88.8922 302.54 87.3284C302.54 85.7102 301.602 84.6088 300.161 84.6088C298.719 84.6088 297.781 85.7102 297.781 87.3284ZM305.173 91V83.7928H306.07L306.206 85.1663C306.668 84.2416 307.512 83.7521 308.708 83.7521H308.953V84.8671H308.708C307.185 84.8671 306.301 85.7374 306.301 87.2196V91H305.173ZM310.286 91V80.8012H311.415V87.342L314.923 83.7928H316.283L313.686 86.4173L316.678 91H315.358L312.911 87.206L311.415 88.7155V91H310.286ZM317.316 92.1015V91.1496H323.408V92.1015H317.316ZM327.299 91C325.899 91 325.151 90.2793 325.151 88.9466V84.7447H323.818V83.7928H325.151V81.3315H326.279V83.7928H328.224V84.7447H326.279V88.9466C326.279 89.6674 326.633 90.0481 327.299 90.0481H328.102V91H327.299ZM332.55 91.1496C330.238 91.1496 329.014 89.5042 329.014 87.3284C329.014 84.9215 330.592 83.6297 332.55 83.6297C334.848 83.6297 336.086 85.2887 336.086 87.3284C336.086 89.8169 334.576 91.1496 332.55 91.1496ZM330.17 87.3284C330.17 89.1778 331.244 90.1705 332.55 90.1705C334.087 90.1705 334.93 88.8922 334.93 87.3284C334.93 85.7102 333.991 84.6088 332.55 84.6088C331.108 84.6088 330.17 85.7102 330.17 87.3284ZM340.703 93.8829C338.758 93.8829 337.439 92.9446 337.439 91.4216H338.568C338.568 92.2782 339.438 92.931 340.703 92.931C342.185 92.931 342.96 92.0471 342.96 90.8096V89.6402C342.457 90.3881 341.587 90.8776 340.485 90.8776C338.568 90.8776 337.195 89.409 337.195 87.2876C337.195 85.1255 338.582 83.6297 340.485 83.6297C341.641 83.6297 342.58 84.1736 343.069 85.0439L343.192 83.7928H344.075V90.8096C344.075 92.6318 342.852 93.8829 340.703 93.8829ZM338.364 87.274C338.364 88.8243 339.302 89.8985 340.649 89.8985C342.008 89.8985 342.96 88.8107 342.96 87.2468C342.96 85.6966 342.008 84.6088 340.649 84.6088C339.302 84.6088 338.364 85.6966 338.364 87.274ZM349.11 91.1496C346.975 91.1496 345.561 89.5858 345.561 87.4236C345.561 84.9623 347.152 83.6297 348.974 83.6297C350.959 83.6297 352.238 84.9623 352.278 87.274V87.5868H346.689C346.757 89.1234 347.655 90.1705 349.11 90.1705C350.116 90.1705 350.851 89.6674 351.15 88.7291H352.251C351.925 90.2113 350.755 91.1496 349.11 91.1496ZM346.757 86.6485H351.095C350.891 85.3839 350.13 84.6088 348.974 84.6088C347.832 84.6088 346.989 85.3567 346.757 86.6485ZM356.528 91C355.127 91 354.379 90.2793 354.379 88.9466V84.7447H353.047V83.7928H354.379V81.3315H355.508V83.7928H357.453V84.7447H355.508V88.9466C355.508 89.6674 355.862 90.0481 356.528 90.0481H357.33V91H356.528ZM358.824 91V80.8012H359.952V84.7175C360.469 84.0648 361.353 83.6297 362.332 83.6297C363.882 83.6297 364.916 84.636 364.916 86.227V91H363.787V86.2678C363.787 85.2615 363.134 84.6224 362.114 84.6224C360.754 84.6224 359.966 85.5198 359.952 86.6213V91H358.824ZM369.866 91.1496C367.731 91.1496 366.317 89.5858 366.317 87.4236C366.317 84.9623 367.908 83.6297 369.73 83.6297C371.716 83.6297 372.994 84.9623 373.035 87.274V87.5868H367.446C367.514 89.1234 368.411 90.1705 369.866 90.1705C370.872 90.1705 371.607 89.6674 371.906 88.7291H373.007C372.681 90.2113 371.512 91.1496 369.866 91.1496ZM367.514 86.6485H371.852C371.648 85.3839 370.886 84.6088 369.73 84.6088C368.588 84.6088 367.745 85.3567 367.514 86.6485ZM374.519 91V83.7928H375.417L375.553 85.1663C376.015 84.2416 376.858 83.7521 378.055 83.7521H378.299V84.8671H378.055C376.532 84.8671 375.648 85.7374 375.648 87.2196V91H374.519ZM379.168 91.136C378.679 91.136 378.311 90.7688 378.311 90.2793C378.311 89.8033 378.679 89.4362 379.168 89.4362C379.658 89.4362 380.025 89.8033 380.025 90.2793C380.025 90.7688 379.658 91.136 379.168 91.136ZM384.534 91.1496C382.603 91.1496 381.257 89.5994 381.257 87.3556C381.257 85.1527 382.589 83.6297 384.52 83.6297C385.608 83.6297 386.519 84.1056 387.036 84.8671V80.8012H388.165V91H387.267L387.145 89.613C386.669 90.5513 385.717 91.1496 384.534 91.1496ZM382.426 87.3556C382.426 89.0146 383.364 90.1705 384.711 90.1705C386.084 90.1705 387.036 89.001 387.036 87.3284C387.036 85.7102 386.111 84.5952 384.779 84.5952C383.392 84.5952 382.426 85.7238 382.426 87.3556ZM390.097 91V80.8012H391.226V87.342L394.734 83.7928H396.094L393.497 86.4173L396.488 91H395.169L392.722 87.206L391.226 88.7155V91H390.097Z" fill="#7A7A7A"/>
</g>
<defs>
<filter id="filter0_d_259_355" x="-43.5" y="6.5" width="1203" height="129" filterUnits="userSpaceOnUse" color-interpolation-filters="sRGB">
<feFlood flood-opacity="0" result="BackgroundImageFix"/>
<feColorMatrix in="SourceAlpha" type="matrix" values="0 0 0 0 0 0 0 0 0 0 0 0 0 0 0 0 0 0 127 0" result="hardAlpha"/>
<feMorphology radius="15" operator="dilate" in="SourceAlpha" result="effect1_dropShadow_259_355"/>
<feOffset dy="-8"/>
<feGaussianBlur stdDeviation="14.25"/>
<feComposite in2="hardAlpha" operator="out"/>
<feColorMatrix type="matrix" values="0 0 0 0 0.0666667 0 0 0 0 0 0 0 0 0 0 0 0 0 0.25 0"/>
<feBlend mode="normal" in2="BackgroundImageFix" result="effect1_dropShadow_259_355"/>
<feBlend mode="normal" in="SourceGraphic" in2="effect1_dropShadow_259_355" result="shape"/>
</filter>
<filter id="filter1_d_259_355" x="166.6" y="76.7812" width="17.4094" height="18.6188" filterUnits="userSpaceOnUse" color-interpolation-filters="sRGB">
<feFlood flood-opacity="0" result="BackgroundImageFix"/>
<feColorMatrix in="SourceAlpha" type="matrix" values="0 0 0 0 0 0 0 0 0 0 0 0 0 0 0 0 0 0 127 0" result="hardAlpha"/>
<feOffset/>
<feGaussianBlur stdDeviation="0.95"/>
<feComposite in2="hardAlpha" operator="out"/>
<feColorMatrix type="matrix" values="0 0 0 0 0.424645 0 0 0 0 0.416699 0 0 0 0 0.416699 0 0 0 1 0"/>
<feBlend mode="normal" in2="BackgroundImageFix" result="effect1_dropShadow_259_355"/>
<feBlend mode="normal" in="SourceGraphic" in2="effect1_dropShadow_259_355" result="shape"/>
</filter>
<clipPath id="clip0_259_355">
<rect width="1116" height="437" rx="20" fill="white"/>
</clipPath>
</defs>
</svg>
